<svg xmlns="http://www.w3.org/2000/svg" xmlns:xlink="http://www.w3.org/1999/xlink" width="1280" zoomAndPan="magnify" viewBox="0 0 960 599.999999" height="800" preserveAspectRatio="xMidYMid meet" version="1.0"><defs><linearGradient x1="0" gradientTransform="matrix(0.75, 0, 0, 0.75, 0.00000048, 0.00002)" y1="0" x2="0" gradientUnits="userSpaceOnUse" y2="799.999967" id="531b0c522a"><stop stop-opacity="1" stop-color="rgb(0%, 67.799377%, 70.999146%)" offset="0"/><stop stop-opacity="1" stop-color="rgb(0.363159%, 67.89856%, 71.086121%)" offset="0.00390625"/><stop stop-opacity="1" stop-color="rgb(0.727844%, 67.997742%, 71.173096%)" offset="0.0078125"/><stop stop-opacity="1" stop-color="rgb(1.092529%, 68.096924%, 71.260071%)" offset="0.0117188"/><stop stop-opacity="1" stop-color="rgb(1.457214%, 68.197632%, 71.347046%)" offset="0.015625"/><stop stop-opacity="1" stop-color="rgb(1.821899%, 68.296814%, 71.434021%)" offset="0.0195312"/><stop stop-opacity="1" stop-color="rgb(2.186584%, 68.397522%, 71.522522%)" offset="0.0234375"/><stop stop-opacity="1" stop-color="rgb(2.549744%, 68.496704%, 71.609497%)" offset="0.0273438"/><stop stop-opacity="1" stop-color="rgb(2.914429%, 68.595886%, 71.696472%)" offset="0.03125"/><stop stop-opacity="1" stop-color="rgb(3.279114%, 68.695068%, 71.783447%)" offset="0.0351562"/><stop stop-opacity="1" stop-color="rgb(3.643799%, 68.795776%, 71.870422%)" offset="0.0390625"/><stop stop-opacity="1" stop-color="rgb(4.008484%, 68.894958%, 71.957397%)" offset="0.0429688"/><stop stop-opacity="1" stop-color="rgb(4.373169%, 68.994141%, 72.044373%)" offset="0.046875"/><stop stop-opacity="1" stop-color="rgb(4.736328%, 69.093323%, 72.131348%)" offset="0.0507812"/><stop stop-opacity="1" stop-color="rgb(5.101013%, 69.194031%, 72.218323%)" offset="0.0546875"/><stop stop-opacity="1" stop-color="rgb(5.465698%, 69.293213%, 72.305298%)" offset="0.0585938"/><stop stop-opacity="1" stop-color="rgb(5.830383%, 69.392395%, 72.392273%)" offset="0.0625"/><stop stop-opacity="1" stop-color="rgb(6.195068%, 69.491577%, 72.479248%)" offset="0.0664062"/><stop stop-opacity="1" stop-color="rgb(6.559753%, 69.592285%, 72.567749%)" offset="0.0703125"/><stop stop-opacity="1" stop-color="rgb(6.922913%, 69.691467%, 72.654724%)" offset="0.0742188"/><stop stop-opacity="1" stop-color="rgb(7.287598%, 69.792175%, 72.741699%)" offset="0.078125"/><stop stop-opacity="1" stop-color="rgb(7.652283%, 69.891357%, 72.828674%)" offset="0.0820312"/><stop stop-opacity="1" stop-color="rgb(8.016968%, 69.99054%, 72.915649%)" offset="0.0859375"/><stop stop-opacity="1" stop-color="rgb(8.381653%, 70.089722%, 73.002625%)" offset="0.0898438"/><stop stop-opacity="1" stop-color="rgb(8.746338%, 70.19043%, 73.0896%)" offset="0.09375"/><stop stop-opacity="1" stop-color="rgb(9.111023%, 70.289612%, 73.176575%)" offset="0.0976562"/><stop stop-opacity="1" stop-color="rgb(9.475708%, 70.388794%, 73.26355%)" offset="0.101562"/><stop stop-opacity="1" stop-color="rgb(9.838867%, 70.487976%, 73.350525%)" offset="0.105469"/><stop stop-opacity="1" stop-color="rgb(10.203552%, 70.588684%, 73.439026%)" offset="0.109375"/><stop stop-opacity="1" stop-color="rgb(10.568237%, 70.687866%, 73.526001%)" offset="0.113281"/><stop stop-opacity="1" stop-color="rgb(10.932922%, 70.787048%, 73.612976%)" offset="0.117188"/><stop stop-opacity="1" stop-color="rgb(11.297607%, 70.88623%, 73.699951%)" offset="0.121094"/><stop stop-opacity="1" stop-color="rgb(11.662292%, 70.986938%, 73.786926%)" offset="0.125"/><stop stop-opacity="1" stop-color="rgb(12.025452%, 71.086121%, 73.873901%)" offset="0.128906"/><stop stop-opacity="1" stop-color="rgb(12.390137%, 71.185303%, 73.960876%)" offset="0.132812"/><stop stop-opacity="1" stop-color="rgb(12.754822%, 71.284485%, 74.047852%)" offset="0.136719"/><stop stop-opacity="1" stop-color="rgb(13.119507%, 71.385193%, 74.134827%)" offset="0.140625"/><stop stop-opacity="1" stop-color="rgb(13.484192%, 71.484375%, 74.221802%)" offset="0.144531"/><stop stop-opacity="1" stop-color="rgb(13.848877%, 71.585083%, 74.308777%)" offset="0.148438"/><stop stop-opacity="1" stop-color="rgb(14.212036%, 71.684265%, 74.395752%)" offset="0.152344"/><stop stop-opacity="1" stop-color="rgb(14.576721%, 71.783447%, 74.484253%)" offset="0.15625"/><stop stop-opacity="1" stop-color="rgb(14.941406%, 71.882629%, 74.571228%)" offset="0.160156"/><stop stop-opacity="1" stop-color="rgb(15.306091%, 71.983337%, 74.658203%)" offset="0.164062"/><stop stop-opacity="1" stop-color="rgb(15.670776%, 72.08252%, 74.745178%)" offset="0.167969"/><stop stop-opacity="1" stop-color="rgb(16.035461%, 72.181702%, 74.832153%)" offset="0.171875"/><stop stop-opacity="1" stop-color="rgb(16.400146%, 72.280884%, 74.919128%)" offset="0.175781"/><stop stop-opacity="1" stop-color="rgb(16.764832%, 72.381592%, 75.006104%)" offset="0.179688"/><stop stop-opacity="1" stop-color="rgb(17.127991%, 72.480774%, 75.093079%)" offset="0.183594"/><stop stop-opacity="1" stop-color="rgb(17.492676%, 72.579956%, 75.180054%)" offset="0.1875"/><stop stop-opacity="1" stop-color="rgb(17.857361%, 72.679138%, 75.267029%)" offset="0.191406"/><stop stop-opacity="1" stop-color="rgb(18.222046%, 72.779846%, 75.354004%)" offset="0.195312"/><stop stop-opacity="1" stop-color="rgb(18.586731%, 72.879028%, 75.440979%)" offset="0.199219"/><stop stop-opacity="1" stop-color="rgb(18.951416%, 72.97821%, 75.52948%)" offset="0.203125"/><stop stop-opacity="1" stop-color="rgb(19.314575%, 73.077393%, 75.616455%)" offset="0.207031"/><stop stop-opacity="1" stop-color="rgb(19.67926%, 73.178101%, 75.70343%)" offset="0.210938"/><stop stop-opacity="1" stop-color="rgb(20.043945%, 73.277283%, 75.790405%)" offset="0.214844"/><stop stop-opacity="1" stop-color="rgb(20.40863%, 73.377991%, 75.87738%)" offset="0.21875"/><stop stop-opacity="1" stop-color="rgb(20.773315%, 73.477173%, 75.964355%)" offset="0.222656"/><stop stop-opacity="1" stop-color="rgb(21.138%, 73.576355%, 76.051331%)" offset="0.226562"/><stop stop-opacity="1" stop-color="rgb(21.50116%, 73.675537%, 76.138306%)" offset="0.230469"/><stop stop-opacity="1" stop-color="rgb(21.865845%, 73.776245%, 76.225281%)" offset="0.234375"/><stop stop-opacity="1" stop-color="rgb(22.23053%, 73.875427%, 76.312256%)" offset="0.238281"/><stop stop-opacity="1" stop-color="rgb(22.595215%, 73.974609%, 76.400757%)" offset="0.242188"/><stop stop-opacity="1" stop-color="rgb(22.9599%, 74.073792%, 76.487732%)" offset="0.246094"/><stop stop-opacity="1" stop-color="rgb(23.324585%, 74.1745%, 76.574707%)" offset="0.25"/><stop stop-opacity="1" stop-color="rgb(23.687744%, 74.273682%, 76.661682%)" offset="0.253906"/><stop stop-opacity="1" stop-color="rgb(24.052429%, 74.372864%, 76.748657%)" offset="0.257812"/><stop stop-opacity="1" stop-color="rgb(24.417114%, 74.472046%, 76.835632%)" offset="0.261719"/><stop stop-opacity="1" stop-color="rgb(24.781799%, 74.572754%, 76.922607%)" offset="0.265625"/><stop stop-opacity="1" stop-color="rgb(25.146484%, 74.671936%, 77.009583%)" offset="0.269531"/><stop stop-opacity="1" stop-color="rgb(25.511169%, 74.772644%, 77.096558%)" offset="0.273438"/><stop stop-opacity="1" stop-color="rgb(25.875854%, 74.871826%, 77.183533%)" offset="0.277344"/><stop stop-opacity="1" stop-color="rgb(26.24054%, 74.971008%, 77.270508%)" offset="0.28125"/><stop stop-opacity="1" stop-color="rgb(26.603699%, 75.07019%, 77.357483%)" offset="0.285156"/><stop stop-opacity="1" stop-color="rgb(26.968384%, 75.170898%, 77.445984%)" offset="0.289062"/><stop stop-opacity="1" stop-color="rgb(27.333069%, 75.270081%, 77.532959%)" offset="0.292969"/><stop stop-opacity="1" stop-color="rgb(27.697754%, 75.369263%, 77.619934%)" offset="0.296875"/><stop stop-opacity="1" stop-color="rgb(28.062439%, 75.468445%, 77.706909%)" offset="0.300781"/><stop stop-opacity="1" stop-color="rgb(28.427124%, 75.569153%, 77.793884%)" offset="0.304688"/><stop stop-opacity="1" stop-color="rgb(28.790283%, 75.668335%, 77.880859%)" offset="0.308594"/><stop stop-opacity="1" stop-color="rgb(29.154968%, 75.767517%, 77.967834%)" offset="0.3125"/><stop stop-opacity="1" stop-color="rgb(29.519653%, 75.866699%, 78.05481%)" offset="0.316406"/><stop stop-opacity="1" stop-color="rgb(29.884338%, 75.967407%, 78.141785%)" offset="0.320312"/><stop stop-opacity="1" stop-color="rgb(30.249023%, 76.066589%, 78.22876%)" offset="0.324219"/><stop stop-opacity="1" stop-color="rgb(30.613708%, 76.165771%, 78.315735%)" offset="0.328125"/><stop stop-opacity="1" stop-color="rgb(30.976868%, 76.264954%, 78.40271%)" offset="0.332031"/><stop stop-opacity="1" stop-color="rgb(31.341553%, 76.365662%, 78.491211%)" offset="0.335938"/><stop stop-opacity="1" stop-color="rgb(31.706238%, 76.464844%, 78.578186%)" offset="0.339844"/><stop stop-opacity="1" stop-color="rgb(32.070923%, 76.565552%, 78.665161%)" offset="0.34375"/><stop stop-opacity="1" stop-color="rgb(32.435608%, 76.664734%, 78.752136%)" offset="0.347656"/><stop stop-opacity="1" stop-color="rgb(32.800293%, 76.763916%, 78.839111%)" offset="0.351562"/><stop stop-opacity="1" stop-color="rgb(33.164978%, 76.863098%, 78.926086%)" offset="0.355469"/><stop stop-opacity="1" stop-color="rgb(33.529663%, 76.963806%, 79.013062%)" offset="0.359375"/><stop stop-opacity="1" stop-color="rgb(33.892822%, 77.062988%, 79.100037%)" offset="0.363281"/><stop stop-opacity="1" stop-color="rgb(34.257507%, 77.16217%, 79.187012%)" offset="0.367188"/><stop stop-opacity="1" stop-color="rgb(34.622192%, 77.261353%, 79.273987%)" offset="0.371094"/><stop stop-opacity="1" stop-color="rgb(34.986877%, 77.362061%, 79.362488%)" offset="0.375"/><stop stop-opacity="1" stop-color="rgb(35.351562%, 77.461243%, 79.449463%)" offset="0.378906"/><stop stop-opacity="1" stop-color="rgb(35.716248%, 77.560425%, 79.536438%)" offset="0.382812"/><stop stop-opacity="1" stop-color="rgb(36.079407%, 77.659607%, 79.623413%)" offset="0.386719"/><stop stop-opacity="1" stop-color="rgb(36.444092%, 77.760315%, 79.710388%)" offset="0.390625"/><stop stop-opacity="1" stop-color="rgb(36.808777%, 77.859497%, 79.797363%)" offset="0.394531"/><stop stop-opacity="1" stop-color="rgb(37.173462%, 77.958679%, 79.884338%)" offset="0.398438"/><stop stop-opacity="1" stop-color="rgb(37.538147%, 78.057861%, 79.971313%)" offset="0.402344"/><stop stop-opacity="1" stop-color="rgb(37.902832%, 78.158569%, 80.058289%)" offset="0.40625"/><stop stop-opacity="1" stop-color="rgb(38.265991%, 78.257751%, 80.145264%)" offset="0.410156"/><stop stop-opacity="1" stop-color="rgb(38.630676%, 78.358459%, 80.232239%)" offset="0.414062"/><stop stop-opacity="1" stop-color="rgb(38.995361%, 78.457642%, 80.319214%)" offset="0.417969"/><stop stop-opacity="1" stop-color="rgb(39.360046%, 78.556824%, 80.407715%)" offset="0.421875"/><stop stop-opacity="1" stop-color="rgb(39.724731%, 78.656006%, 80.49469%)" offset="0.425781"/><stop stop-opacity="1" stop-color="rgb(40.089417%, 78.756714%, 80.581665%)" offset="0.429688"/><stop stop-opacity="1" stop-color="rgb(40.452576%, 78.855896%, 80.66864%)" offset="0.433594"/><stop stop-opacity="1" stop-color="rgb(40.817261%, 78.955078%, 80.755615%)" offset="0.4375"/><stop stop-opacity="1" stop-color="rgb(41.181946%, 79.05426%, 80.84259%)" offset="0.441406"/><stop stop-opacity="1" stop-color="rgb(41.546631%, 79.154968%, 80.929565%)" offset="0.445312"/><stop stop-opacity="1" stop-color="rgb(41.911316%, 79.25415%, 81.016541%)" offset="0.449219"/><stop stop-opacity="1" stop-color="rgb(42.276001%, 79.353333%, 81.103516%)" offset="0.453125"/><stop stop-opacity="1" stop-color="rgb(42.640686%, 79.452515%, 81.190491%)" offset="0.457031"/><stop stop-opacity="1" stop-color="rgb(43.005371%, 79.553223%, 81.277466%)" offset="0.460938"/><stop stop-opacity="1" stop-color="rgb(43.36853%, 79.652405%, 81.364441%)" offset="0.464844"/><stop stop-opacity="1" stop-color="rgb(43.733215%, 79.753113%, 81.452942%)" offset="0.46875"/><stop stop-opacity="1" stop-color="rgb(44.0979%, 79.852295%, 81.539917%)" offset="0.472656"/><stop stop-opacity="1" stop-color="rgb(44.462585%, 79.951477%, 81.626892%)" offset="0.476562"/><stop stop-opacity="1" stop-color="rgb(44.827271%, 80.050659%, 81.713867%)" offset="0.480469"/><stop stop-opacity="1" stop-color="rgb(45.191956%, 80.151367%, 81.800842%)" offset="0.484375"/><stop stop-opacity="1" stop-color="rgb(45.555115%, 80.250549%, 81.887817%)" offset="0.488281"/><stop stop-opacity="1" stop-color="rgb(45.9198%, 80.349731%, 81.974792%)" offset="0.492188"/><stop stop-opacity="1" stop-color="rgb(46.284485%, 80.448914%, 82.061768%)" offset="0.496094"/><stop stop-opacity="1" stop-color="rgb(46.64917%, 80.549622%, 82.148743%)" offset="0.5"/><stop stop-opacity="1" stop-color="rgb(47.013855%, 80.648804%, 82.235718%)" offset="0.503906"/><stop stop-opacity="1" stop-color="rgb(47.37854%, 80.747986%, 82.322693%)" offset="0.507812"/><stop stop-opacity="1" stop-color="rgb(47.741699%, 80.847168%, 82.409668%)" offset="0.511719"/><stop stop-opacity="1" stop-color="rgb(48.106384%, 80.947876%, 82.498169%)" offset="0.515625"/><stop stop-opacity="1" stop-color="rgb(48.471069%, 81.047058%, 82.585144%)" offset="0.519531"/><stop stop-opacity="1" stop-color="rgb(48.835754%, 81.14624%, 82.672119%)" offset="0.523438"/><stop stop-opacity="1" stop-color="rgb(49.200439%, 81.245422%, 82.759094%)" offset="0.527344"/><stop stop-opacity="1" stop-color="rgb(49.565125%, 81.34613%, 82.846069%)" offset="0.53125"/><stop stop-opacity="1" stop-color="rgb(49.92981%, 81.445312%, 82.933044%)" offset="0.535156"/><stop stop-opacity="1" stop-color="rgb(50.294495%, 81.546021%, 83.02002%)" offset="0.539062"/><stop stop-opacity="1" stop-color="rgb(50.657654%, 81.645203%, 83.106995%)" offset="0.542969"/><stop stop-opacity="1" stop-color="rgb(51.022339%, 81.744385%, 83.19397%)" offset="0.546875"/><stop stop-opacity="1" stop-color="rgb(51.387024%, 81.843567%, 83.280945%)" offset="0.550781"/><stop stop-opacity="1" stop-color="rgb(51.751709%, 81.944275%, 83.369446%)" offset="0.554688"/><stop stop-opacity="1" stop-color="rgb(52.116394%, 82.043457%, 83.456421%)" offset="0.558594"/><stop stop-opacity="1" stop-color="rgb(52.481079%, 82.142639%, 83.543396%)" offset="0.5625"/><stop stop-opacity="1" stop-color="rgb(52.844238%, 82.241821%, 83.630371%)" offset="0.566406"/><stop stop-opacity="1" stop-color="rgb(53.208923%, 82.342529%, 83.717346%)" offset="0.570312"/><stop stop-opacity="1" stop-color="rgb(53.573608%, 82.441711%, 83.804321%)" offset="0.574219"/><stop stop-opacity="1" stop-color="rgb(53.938293%, 82.540894%, 83.891296%)" offset="0.578125"/><stop stop-opacity="1" stop-color="rgb(54.302979%, 82.640076%, 83.978271%)" offset="0.582031"/><stop stop-opacity="1" stop-color="rgb(54.667664%, 82.740784%, 84.065247%)" offset="0.585938"/><stop stop-opacity="1" stop-color="rgb(55.030823%, 82.839966%, 84.152222%)" offset="0.589844"/><stop stop-opacity="1" stop-color="rgb(55.395508%, 82.939148%, 84.239197%)" offset="0.59375"/><stop stop-opacity="1" stop-color="rgb(55.760193%, 83.03833%, 84.326172%)" offset="0.597656"/><stop stop-opacity="1" stop-color="rgb(56.124878%, 83.139038%, 84.414673%)" offset="0.601562"/><stop stop-opacity="1" stop-color="rgb(56.489563%, 83.23822%, 84.501648%)" offset="0.605469"/><stop stop-opacity="1" stop-color="rgb(56.854248%, 83.338928%, 84.588623%)" offset="0.609375"/><stop stop-opacity="1" stop-color="rgb(57.217407%, 83.43811%, 84.675598%)" offset="0.613281"/><stop stop-opacity="1" stop-color="rgb(57.582092%, 83.537292%, 84.762573%)" offset="0.617188"/><stop stop-opacity="1" stop-color="rgb(57.946777%, 83.636475%, 84.849548%)" offset="0.621094"/><stop stop-opacity="1" stop-color="rgb(58.311462%, 83.737183%, 84.936523%)" offset="0.625"/><stop stop-opacity="1" stop-color="rgb(58.676147%, 83.836365%, 85.023499%)" offset="0.628906"/><stop stop-opacity="1" stop-color="rgb(59.040833%, 83.935547%, 85.110474%)" offset="0.632812"/><stop stop-opacity="1" stop-color="rgb(59.405518%, 84.034729%, 85.197449%)" offset="0.636719"/><stop stop-opacity="1" stop-color="rgb(59.770203%, 84.135437%, 85.284424%)" offset="0.640625"/><stop stop-opacity="1" stop-color="rgb(60.133362%, 84.234619%, 85.371399%)" offset="0.644531"/><stop stop-opacity="1" stop-color="rgb(60.498047%, 84.333801%, 85.4599%)" offset="0.648438"/><stop stop-opacity="1" stop-color="rgb(60.862732%, 84.432983%, 85.546875%)" offset="0.652344"/><stop stop-opacity="1" stop-color="rgb(61.227417%, 84.533691%, 85.63385%)" offset="0.65625"/><stop stop-opacity="1" stop-color="rgb(61.592102%, 84.632874%, 85.720825%)" offset="0.660156"/><stop stop-opacity="1" stop-color="rgb(61.956787%, 84.733582%, 85.8078%)" offset="0.664062"/><stop stop-opacity="1" stop-color="rgb(62.319946%, 84.832764%, 85.894775%)" offset="0.667969"/><stop stop-opacity="1" stop-color="rgb(62.684631%, 84.931946%, 85.98175%)" offset="0.671875"/><stop stop-opacity="1" stop-color="rgb(63.049316%, 85.031128%, 86.068726%)" offset="0.675781"/><stop stop-opacity="1" stop-color="rgb(63.414001%, 85.131836%, 86.155701%)" offset="0.679688"/><stop stop-opacity="1" stop-color="rgb(63.778687%, 85.231018%, 86.242676%)" offset="0.683594"/><stop stop-opacity="1" stop-color="rgb(64.143372%, 85.3302%, 86.331177%)" offset="0.6875"/><stop stop-opacity="1" stop-color="rgb(64.506531%, 85.429382%, 86.418152%)" offset="0.691406"/><stop stop-opacity="1" stop-color="rgb(64.871216%, 85.53009%, 86.505127%)" offset="0.695312"/><stop stop-opacity="1" stop-color="rgb(65.235901%, 85.629272%, 86.592102%)" offset="0.699219"/><stop stop-opacity="1" stop-color="rgb(65.600586%, 85.728455%, 86.679077%)" offset="0.703125"/><stop stop-opacity="1" stop-color="rgb(65.965271%, 85.827637%, 86.766052%)" offset="0.707031"/><stop stop-opacity="1" stop-color="rgb(66.329956%, 85.928345%, 86.853027%)" offset="0.710938"/><stop stop-opacity="1" stop-color="rgb(66.694641%, 86.027527%, 86.940002%)" offset="0.714844"/><stop stop-opacity="1" stop-color="rgb(67.059326%, 86.126709%, 87.026978%)" offset="0.71875"/><stop stop-opacity="1" stop-color="rgb(67.422485%, 86.225891%, 87.113953%)" offset="0.722656"/><stop stop-opacity="1" stop-color="rgb(67.78717%, 86.326599%, 87.200928%)" offset="0.726562"/><stop stop-opacity="1" stop-color="rgb(68.151855%, 86.425781%, 87.287903%)" offset="0.730469"/><stop stop-opacity="1" stop-color="rgb(68.516541%, 86.526489%, 87.376404%)" offset="0.734375"/><stop stop-opacity="1" stop-color="rgb(68.881226%, 86.625671%, 87.463379%)" offset="0.738281"/><stop stop-opacity="1" stop-color="rgb(69.245911%, 86.724854%, 87.550354%)" offset="0.742188"/><stop stop-opacity="1" stop-color="rgb(69.60907%, 86.824036%, 87.637329%)" offset="0.746094"/><stop stop-opacity="1" stop-color="rgb(69.973755%, 86.924744%, 87.724304%)" offset="0.75"/><stop stop-opacity="1" stop-color="rgb(70.33844%, 87.023926%, 87.811279%)" offset="0.753906"/><stop stop-opacity="1" stop-color="rgb(70.703125%, 87.123108%, 87.898254%)" offset="0.757812"/><stop stop-opacity="1" stop-color="rgb(71.06781%, 87.22229%, 87.985229%)" offset="0.761719"/><stop stop-opacity="1" stop-color="rgb(71.432495%, 87.322998%, 88.072205%)" offset="0.765625"/><stop stop-opacity="1" stop-color="rgb(71.795654%, 87.42218%, 88.15918%)" offset="0.769531"/><stop stop-opacity="1" stop-color="rgb(72.160339%, 87.521362%, 88.246155%)" offset="0.773438"/><stop stop-opacity="1" stop-color="rgb(72.525024%, 87.620544%, 88.33313%)" offset="0.777344"/><stop stop-opacity="1" stop-color="rgb(72.889709%, 87.721252%, 88.421631%)" offset="0.78125"/><stop stop-opacity="1" stop-color="rgb(73.254395%, 87.820435%, 88.508606%)" offset="0.785156"/><stop stop-opacity="1" stop-color="rgb(73.61908%, 87.919617%, 88.595581%)" offset="0.789062"/><stop stop-opacity="1" stop-color="rgb(73.982239%, 88.018799%, 88.682556%)" offset="0.792969"/><stop stop-opacity="1" stop-color="rgb(74.346924%, 88.119507%, 88.769531%)" offset="0.796875"/><stop stop-opacity="1" stop-color="rgb(74.711609%, 88.218689%, 88.856506%)" offset="0.800781"/><stop stop-opacity="1" stop-color="rgb(75.076294%, 88.319397%, 88.943481%)" offset="0.804688"/><stop stop-opacity="1" stop-color="rgb(75.440979%, 88.418579%, 89.030457%)" offset="0.808594"/><stop stop-opacity="1" stop-color="rgb(75.805664%, 88.517761%, 89.117432%)" offset="0.8125"/><stop stop-opacity="1" stop-color="rgb(76.170349%, 88.616943%, 89.204407%)" offset="0.816406"/><stop stop-opacity="1" stop-color="rgb(76.535034%, 88.717651%, 89.292908%)" offset="0.820312"/><stop stop-opacity="1" stop-color="rgb(76.898193%, 88.816833%, 89.379883%)" offset="0.824219"/><stop stop-opacity="1" stop-color="rgb(77.262878%, 88.916016%, 89.466858%)" offset="0.828125"/><stop stop-opacity="1" stop-color="rgb(77.627563%, 89.015198%, 89.553833%)" offset="0.832031"/><stop stop-opacity="1" stop-color="rgb(77.992249%, 89.115906%, 89.640808%)" offset="0.835938"/><stop stop-opacity="1" stop-color="rgb(78.356934%, 89.215088%, 89.727783%)" offset="0.839844"/><stop stop-opacity="1" stop-color="rgb(78.721619%, 89.31427%, 89.814758%)" offset="0.84375"/><stop stop-opacity="1" stop-color="rgb(79.084778%, 89.413452%, 89.901733%)" offset="0.847656"/><stop stop-opacity="1" stop-color="rgb(79.449463%, 89.51416%, 89.988708%)" offset="0.851562"/><stop stop-opacity="1" stop-color="rgb(79.814148%, 89.613342%, 90.075684%)" offset="0.855469"/><stop stop-opacity="1" stop-color="rgb(80.178833%, 89.71405%, 90.162659%)" offset="0.859375"/><stop stop-opacity="1" stop-color="rgb(80.543518%, 89.813232%, 90.249634%)" offset="0.863281"/><stop stop-opacity="1" stop-color="rgb(80.908203%, 89.912415%, 90.338135%)" offset="0.867188"/><stop stop-opacity="1" stop-color="rgb(81.271362%, 90.011597%, 90.42511%)" offset="0.871094"/><stop stop-opacity="1" stop-color="rgb(81.636047%, 90.112305%, 90.512085%)" offset="0.875"/><stop stop-opacity="1" stop-color="rgb(82.000732%, 90.211487%, 90.59906%)" offset="0.878906"/><stop stop-opacity="1" stop-color="rgb(82.365417%, 90.310669%, 90.686035%)" offset="0.882812"/><stop stop-opacity="1" stop-color="rgb(82.730103%, 90.409851%, 90.77301%)" offset="0.886719"/><stop stop-opacity="1" stop-color="rgb(83.094788%, 90.510559%, 90.859985%)" offset="0.890625"/><stop stop-opacity="1" stop-color="rgb(83.459473%, 90.609741%, 90.94696%)" offset="0.894531"/><stop stop-opacity="1" stop-color="rgb(83.824158%, 90.708923%, 91.033936%)" offset="0.898438"/><stop stop-opacity="1" stop-color="rgb(84.187317%, 90.808105%, 91.120911%)" offset="0.902344"/><stop stop-opacity="1" stop-color="rgb(84.552002%, 90.908813%, 91.207886%)" offset="0.90625"/><stop stop-opacity="1" stop-color="rgb(84.916687%, 91.007996%, 91.294861%)" offset="0.910156"/><stop stop-opacity="1" stop-color="rgb(85.281372%, 91.107178%, 91.383362%)" offset="0.914062"/><stop stop-opacity="1" stop-color="rgb(85.646057%, 91.20636%, 91.470337%)" offset="0.917969"/><stop stop-opacity="1" stop-color="rgb(86.010742%, 91.307068%, 91.557312%)" offset="0.921875"/><stop stop-opacity="1" stop-color="rgb(86.373901%, 91.40625%, 91.644287%)" offset="0.925781"/><stop stop-opacity="1" stop-color="rgb(86.738586%, 91.506958%, 91.731262%)" offset="0.929688"/><stop stop-opacity="1" stop-color="rgb(87.103271%, 91.60614%, 91.818237%)" offset="0.933594"/><stop stop-opacity="1" stop-color="rgb(87.467957%, 91.705322%, 91.905212%)" offset="0.9375"/><stop stop-opacity="1" stop-color="rgb(87.832642%, 91.804504%, 91.992188%)" offset="0.941406"/><stop stop-opacity="1" stop-color="rgb(88.197327%, 91.905212%, 92.079163%)" offset="0.945312"/><stop stop-opacity="1" stop-color="rgb(88.560486%, 92.004395%, 92.166138%)" offset="0.949219"/><stop stop-opacity="1" stop-color="rgb(88.925171%, 92.103577%, 92.254639%)" offset="0.953125"/><stop stop-opacity="1" stop-color="rgb(89.289856%, 92.202759%, 92.341614%)" offset="0.957031"/><stop stop-opacity="1" stop-color="rgb(89.654541%, 92.303467%, 92.428589%)" offset="0.960938"/><stop stop-opacity="1" stop-color="rgb(90.019226%, 92.402649%, 92.515564%)" offset="0.964844"/><stop stop-opacity="1" stop-color="rgb(90.383911%, 92.501831%, 92.602539%)" offset="0.96875"/><stop stop-opacity="1" stop-color="rgb(90.74707%, 92.601013%, 92.689514%)" offset="0.972656"/><stop stop-opacity="1" stop-color="rgb(91.111755%, 92.701721%, 92.776489%)" offset="0.976562"/><stop stop-opacity="1" stop-color="rgb(91.47644%, 92.800903%, 92.863464%)" offset="0.980469"/><stop stop-opacity="1" stop-color="rgb(91.841125%, 92.900085%, 92.950439%)" offset="0.984375"/><stop stop-opacity="1" stop-color="rgb(92.205811%, 92.999268%, 93.037415%)" offset="0.988281"/><stop stop-opacity="1" stop-color="rgb(92.570496%, 93.099976%, 93.12439%)" offset="0.992188"/><stop stop-opacity="1" stop-color="rgb(92.935181%, 93.199158%, 93.211365%)" offset="0.996094"/><stop stop-opacity="1" stop-color="rgb(93.299866%, 93.299866%, 93.299866%)" offset="1"/></linearGradient></defs><rect x="-96" width="1152" fill="#ffffff" y="-60" height="719.999999" fill-opacity="1"/><rect x="-96" fill="url(#531b0c522a)" width="1152" y="-60" height="719.999999"/><path fill="#393e46" d="M 814.597656 376.042969 L 648.113281 426.796875 C 644.472656 427.90625 640.617188 425.855469 639.507812 422.207031 L 574.070312 207.570312 C 572.960938 203.929688 575.007812 200.074219 578.65625 198.964844 L 745.140625 148.210938 C 748.78125 147.101562 752.636719 149.148438 753.746094 152.796875 L 819.183594 367.4375 C 820.292969 371.078125 818.238281 374.933594 814.597656 376.042969 Z M 814.597656 376.042969 " fill-opacity="1" fill-rule="nonzero"/><path fill="#eeeeee" d="M 809.140625 387.242188 L 637.363281 359.21875 C 633.605469 358.605469 631.054688 355.0625 631.664062 351.304688 L 667.796875 129.835938 C 668.410156 126.078125 671.953125 123.527344 675.710938 124.140625 L 847.492188 152.164062 C 851.25 152.773438 853.800781 156.320312 853.1875 160.078125 L 817.054688 381.542969 C 816.445312 385.300781 812.898438 387.851562 809.140625 387.242188 Z M 809.140625 387.242188 " fill-opacity="1" fill-rule="nonzero"/><path fill="#393e46" d="M 823.765625 215.160156 C 825.679688 215.929688 826.929688 217.78125 826.929688 219.84375 L 826.929688 244.871094 C 826.929688 246.933594 825.675781 248.789062 823.765625 249.558594 L 811.964844 254.308594 L 811.964844 210.40625 Z M 823.765625 215.160156 " fill-opacity="1" fill-rule="nonzero"/><path fill="#00adb5" d="M 826.929688 188.960938 L 826.929688 213.988281 C 826.929688 216.050781 825.675781 217.902344 823.765625 218.675781 L 817.148438 221.339844 L 817.148438 391.167969 C 817.148438 394.972656 814.0625 398.066406 810.25 398.066406 L 636.199219 398.066406 C 632.394531 398.066406 629.300781 394.980469 629.300781 391.167969 L 629.300781 166.773438 C 629.300781 162.96875 632.386719 159.878906 636.199219 159.878906 L 810.25 159.878906 C 814.054688 159.878906 817.148438 162.960938 817.148438 166.773438 L 817.148438 181.609375 L 823.765625 184.277344 C 825.679688 185.046875 826.929688 186.898438 826.929688 188.960938 Z M 826.929688 188.960938 " fill-opacity="1" fill-rule="nonzero"/><path fill="#393e46" d="M 788.46875 233.96875 L 657.984375 233.96875 C 655.597656 233.96875 653.664062 232.035156 653.664062 229.648438 L 653.664062 188.183594 C 653.664062 185.796875 655.597656 183.863281 657.984375 183.863281 L 788.46875 183.863281 C 790.859375 183.863281 792.789062 185.796875 792.789062 188.183594 L 792.789062 229.648438 C 792.789062 232.035156 790.859375 233.96875 788.46875 233.96875 Z M 788.46875 233.96875 " fill-opacity="1" fill-rule="nonzero"/><path fill="#1d1638" d="M 803.515625 410.578125 L 766.488281 354.128906 C 787.171875 335.238281 791.71875 303.523438 775.871094 279.363281 C 757.878906 251.925781 720.472656 244.722656 693.511719 263.9375 C 669.039062 281.378906 661.941406 315.027344 677.289062 340.863281 C 692.652344 366.726562 724.65625 376.078125 751 364.285156 L 788.027344 420.734375 C 790.832031 425.015625 796.578125 426.207031 800.855469 423.402344 C 805.128906 420.597656 806.324219 414.859375 803.515625 410.578125 Z M 748.992188 344.332031 C 730.738281 356.304688 706.152344 351.195312 694.183594 332.941406 C 682.214844 314.6875 687.324219 290.101562 705.578125 278.132812 C 723.832031 266.164062 748.417969 271.269531 760.386719 289.523438 C 772.347656 307.773438 767.242188 332.363281 748.992188 344.332031 Z M 740.824219 285.046875 L 707.121094 332.765625 C 706.632812 333.460938 705.667969 333.625 704.972656 333.132812 C 704.273438 332.644531 704.109375 331.679688 704.601562 330.984375 L 738.304688 283.265625 C 738.792969 282.566406 739.757812 282.402344 740.453125 282.894531 C 741.152344 283.386719 741.316406 284.347656 740.824219 285.046875 Z M 754.121094 292.792969 L 720.417969 340.511719 C 719.929688 341.207031 718.964844 341.371094 718.265625 340.878906 C 717.570312 340.390625 717.40625 339.425781 717.898438 338.726562 L 751.597656 291.007812 C 752.089844 290.3125 753.054688 290.148438 753.75 290.640625 C 754.449219 291.128906 754.609375 292.09375 754.121094 292.792969 Z M 754.121094 292.792969 " fill-opacity="1" fill-rule="nonzero"/><path fill="#00adb5" d="M 822.941406 590.800781 C 826.046875 594.410156 823.480469 600 818.71875 600 L 608.027344 600 C 603.261719 600 600.699219 594.410156 603.804688 590.800781 L 626.316406 564.609375 L 724.484375 558.308594 L 779.839844 558.308594 L 789.949219 564.609375 L 800.433594 564.609375 Z M 822.941406 590.800781 " fill-opacity="1" fill-rule="nonzero"/><path fill="#eeeeee" d="M 711.222656 502.21875 C 711.222656 502.21875 733.421875 511.828125 741.351562 518.667969 C 748.09375 524.476562 762.882812 550.792969 762.882812 550.792969 L 769.441406 521.292969 C 769.441406 521.292969 798.347656 531.558594 798.320312 531.726562 C 797.59375 535.972656 789.945312 564.605469 789.945312 564.605469 L 695.648438 564.605469 L 685.09375 568.671875 L 682.027344 584.515625 C 682.027344 584.515625 648.699219 582.945312 632.101562 581.855469 C 615.503906 580.765625 611.207031 571.835938 614.027344 562.480469 C 616.847656 553.125 641.007812 520.90625 652.117188 513.328125 C 663.230469 505.746094 686.570312 502.214844 686.570312 502.214844 C 690.148438 506.351562 711.222656 502.21875 711.222656 502.21875 Z M 711.222656 502.21875 " fill-opacity="1" fill-rule="nonzero"/><path fill="#00adb5" d="M 755.949219 546.113281 L 794.09375 546.113281 L 813.226562 564.609375 C 813.226562 564.609375 764.136719 572.992188 763.480469 573.441406 C 762.824219 573.890625 755.949219 546.113281 755.949219 546.113281 Z M 755.949219 546.113281 " fill-opacity="1" fill-rule="nonzero"/><path fill="#1d1638" d="M 789.503906 524.078125 C 798.6875 527.878906 799.976562 531.925781 796.824219 533.292969 C 794.578125 534.265625 790.941406 534.128906 787.03125 533.28125 C 782.589844 529.710938 781.285156 524.054688 771.953125 526.59375 C 770.089844 525.035156 769.011719 523.410156 769.238281 521.902344 C 769.839844 517.855469 781.039062 520.578125 789.503906 524.078125 Z M 789.503906 524.078125 " fill-opacity="1" fill-rule="nonzero"/><path fill="#dac0a3" d="M 787.03125 533.296875 C 781.523438 532.234375 775.347656 529.59375 771.90625 526.660156 C 771.90625 526.660156 771.40625 513.21875 772.714844 509.460938 C 774.023438 505.699219 780.726562 503.328125 780.726562 503.328125 L 787.390625 497.15625 C 790.125 496.789062 791.507812 500.464844 791.371094 502.429688 C 791.371094 502.429688 793.875 504.664062 792.804688 508.328125 C 792.804688 508.328125 794.382812 510.238281 793.644531 513.898438 C 793.644531 513.898438 794.898438 514.808594 794.488281 517.109375 C 794.085938 519.414062 792.613281 522.328125 790.332031 520.476562 C 788.050781 518.628906 787.035156 531.296875 787.035156 531.296875 Z M 787.03125 533.296875 " fill-opacity="1" fill-rule="nonzero"/><path fill="#eeeeee" d="M 707.132812 566.492188 L 726.398438 566.492188 L 743.324219 587.230469 C 748.128906 587.75 748.207031 598.382812 744.496094 598.382812 C 740.78125 598.382812 709.535156 598.382812 708 598.382812 C 706.460938 598.382812 698.550781 599.332031 696.34375 594.863281 C 694.140625 590.402344 689.878906 577.34375 689.878906 577.34375 Z M 790.328125 520.472656 C 789.144531 519.664062 789.71875 517.304688 789.71875 517.304688 C 789.71875 517.304688 787.445312 516.847656 787.492188 514.804688 C 787.542969 512.757812 789.078125 511.363281 789.078125 511.363281 C 786.4375 509.355469 788.640625 505.613281 788.539062 504.726562 L 787.519531 495.753906 C 787.507812 495.652344 787.414062 495.578125 787.3125 495.585938 L 779.988281 496.414062 C 779.886719 496.429688 779.8125 496.519531 779.820312 496.621094 L 780.585938 503.363281 C 782.609375 502.644531 784.40625 502.890625 784.792969 504.605469 C 785.179688 506.328125 784.175781 508.132812 783.027344 508.640625 C 782.5 508.875 781.847656 509.230469 781.289062 509.570312 L 783.453125 528.636719 C 783.691406 530.761719 785.613281 532.292969 787.738281 532.050781 C 789.863281 531.808594 791.390625 529.890625 791.148438 527.765625 Z M 768.847656 596.527344 L 813.226562 596.527344 C 813.226562 596.527344 815.429688 593.015625 813.226562 588.625 C 813.226562 588.625 816.523438 584.121094 813.226562 576.691406 C 813.226562 576.691406 817.152344 570.847656 813.226562 564.605469 L 768.847656 564.605469 L 768.847656 596.054688 " fill-opacity="1" fill-rule="nonzero"/><path fill="#393e46" d="M 707.996094 504.535156 C 717.433594 519.675781 716.941406 564.609375 716.941406 564.609375 L 706.820312 564.609375 C 703.332031 565.445312 710.867188 571.867188 707.332031 572.484375 C 705.109375 572.867188 702.832031 571.742188 701.3125 570.074219 C 699.792969 568.410156 698.902344 566.273438 698.15625 564.144531 C 697.445312 562.136719 696.429688 559.640625 696.570312 557.472656 C 696.660156 556.09375 696.785156 554.859375 696.675781 553.449219 C 696.457031 550.535156 696.097656 547.632812 695.679688 544.738281 C 694.742188 538.28125 693.5 531.871094 692.136719 525.492188 C 690.46875 517.695312 688.640625 509.921875 686.570312 502.21875 C 686.570312 502.21875 687.4375 501.953125 687.4375 501.953125 C 687.4375 501.953125 698.5625 489.398438 707.996094 504.535156 Z M 784.605469 528.128906 C 784.0625 524.34375 782.890625 512.980469 782.527344 508.890625 C 782.699219 508.804688 782.871094 508.71875 783.03125 508.648438 C 783.734375 508.335938 784.378906 507.539062 784.691406 506.570312 L 787.539062 505.53125 C 787.539062 505.53125 787.644531 506.4375 787.820312 507.890625 C 787.730469 508.648438 787.765625 509.4375 788.09375 510.152344 C 788.171875 510.8125 788.257812 511.511719 788.34375 512.253906 C 787.941406 512.859375 787.519531 513.742188 787.492188 514.804688 C 787.460938 516.03125 788.273438 516.6875 788.925781 517.011719 C 789.445312 521.25 789.972656 525.476562 790.242188 527.371094 C 790.789062 531.25 785.226562 532.417969 784.605469 528.128906 Z M 786.199219 519.226562 C 786.199219 519.9375 786.773438 520.507812 787.480469 520.507812 C 788.191406 520.507812 788.761719 519.929688 788.761719 519.226562 C 788.761719 518.519531 788.1875 517.945312 787.480469 517.945312 C 786.773438 517.941406 786.199219 518.515625 786.199219 519.226562 Z M 785.25 516.40625 C 785.25 516.738281 785.519531 517.007812 785.851562 517.007812 C 786.183594 517.007812 786.457031 516.738281 786.457031 516.40625 C 786.457031 516.074219 786.183594 515.800781 785.851562 515.800781 C 785.519531 515.800781 785.25 516.074219 785.25 516.40625 Z M 786.628906 523.132812 C 786.628906 522.589844 786.183594 522.140625 785.636719 522.140625 C 785.089844 522.140625 784.640625 522.582031 784.640625 523.132812 C 784.640625 523.679688 785.085938 524.128906 785.636719 524.128906 C 786.179688 524.128906 786.628906 523.683594 786.628906 523.132812 Z M 789.277344 525.703125 C 789.277344 525.023438 788.726562 524.472656 788.046875 524.472656 C 787.371094 524.472656 786.820312 525.023438 786.820312 525.703125 C 786.820312 526.378906 787.371094 526.929688 788.046875 526.929688 C 788.726562 526.929688 789.277344 526.378906 789.277344 525.703125 Z M 789.277344 525.703125 " fill-opacity="1" fill-rule="nonzero"/><path fill="#1d1638" d="M 692.910156 578.019531 L 699.222656 593.980469 L 698.914062 594.105469 L 692.601562 578.140625 Z M 705.394531 597.535156 C 704.949219 597.988281 704.367188 598.21875 703.675781 598.21875 L 703.675781 598.550781 C 704.460938 598.550781 705.121094 598.289062 705.632812 597.765625 C 706.386719 596.996094 706.785156 595.671875 706.753906 594.039062 L 706.421875 594.042969 C 706.453125 595.589844 706.085938 596.828125 705.394531 597.535156 Z M 704.917969 587.324219 C 703.757812 587.339844 702.992188 587.351562 702.945312 587.351562 L 702.9375 587.683594 C 702.941406 587.683594 702.945312 587.683594 702.949219 587.683594 C 703.042969 587.683594 703.550781 587.675781 704.921875 587.65625 C 725.136719 587.382812 738.054688 587.292969 743.324219 587.398438 L 743.335938 587.066406 C 738.054688 586.960938 725.136719 587.042969 704.917969 587.324219 Z M 698.453125 583.683594 L 737.28125 583.683594 L 737.28125 583.351562 L 698.453125 583.351562 Z M 697.4375 580.199219 L 733.851562 580.199219 L 733.851562 579.867188 L 697.4375 579.867188 Z M 707.054688 576.542969 L 730.972656 576.542969 L 730.972656 576.207031 L 707.054688 576.207031 Z M 710.015625 572.832031 L 710.015625 573.164062 L 729.160156 573.164062 L 729.160156 572.832031 Z M 704.8125 557.113281 L 699.84375 546.667969 C 699.523438 546 698.722656 545.71875 698.058594 546.042969 C 697.40625 546.363281 697.128906 547.136719 697.4375 547.800781 C 698.695312 550.507812 701.679688 556.953125 701.648438 557.117188 L 704.8125 557.117188 Z M 688.203125 563.058594 C 688.203125 563.058594 689.046875 556.070312 685.800781 554.425781 C 683.773438 553.398438 680.023438 556.707031 678.917969 559.175781 C 677.816406 561.648438 675.640625 576.390625 675.640625 576.390625 C 676.699219 583.679688 682.550781 589.609375 689.261719 577.949219 C 695.972656 566.28125 688.203125 563.058594 688.203125 563.058594 Z M 693.800781 490.953125 C 693.800781 490.953125 718.304688 490.582031 724.046875 485.269531 C 729.792969 479.953125 730.640625 475.433594 729.046875 473.699219 C 738.828125 466.597656 729.421875 457.726562 725.753906 459.855469 C 722.082031 461.980469 721.816406 459.964844 715.53125 456.96875 C 709.246094 453.976562 705.703125 458.148438 705.703125 458.148438 C 702.71875 456.121094 692.6875 457.308594 689.519531 467.644531 C 686.351562 477.984375 692.632812 487.132812 692.34375 488.15625 Z M 784.859375 505.019531 C 784.933594 505.765625 784.769531 506.503906 784.464844 507.136719 C 785.953125 506.886719 787.601562 506.070312 787.535156 505.53125 C 787.46875 504.949219 786.164062 504.832031 784.859375 505.019531 Z M 784.859375 505.019531 " fill-opacity="1" fill-rule="nonzero"/><path fill="#dac0a3" d="M 710.699219 558.714844 C 712.675781 560.691406 714.371094 564.246094 714.21875 567.15625 C 714.070312 570.066406 712.046875 568.675781 712.046875 568.675781 C 711.644531 570.457031 710.109375 571.183594 710.109375 571.183594 C 710.597656 574.882812 707.300781 575.464844 707.300781 575.464844 C 707.300781 575.464844 707.464844 578.777344 699.726562 579.441406 C 691.984375 580.105469 675.640625 576.386719 675.640625 576.386719 C 674.832031 566.589844 678.917969 559.171875 678.917969 559.171875 C 678.917969 559.171875 686.058594 561.199219 687.875 561.128906 C 689.691406 561.058594 693.902344 555.796875 696.882812 555.511719 C 699.863281 555.230469 708.71875 556.742188 710.699219 558.714844 Z M 709.984375 466.140625 C 708.308594 465.273438 706.449219 466.976562 705.492188 470.625 C 704.53125 474.277344 703.742188 473.941406 701.960938 473.261719 C 700.175781 472.585938 700.273438 474.839844 700.273438 474.839844 C 699.074219 473.695312 695.089844 472.902344 694.1875 477.394531 C 693.101562 482.832031 698.34375 484.472656 698.34375 484.472656 L 692.34375 488.140625 L 687.4375 501.949219 C 688.8125 508.429688 702.804688 517.960938 702.804688 517.960938 L 709.902344 503.085938 C 714.738281 504.800781 718.570312 501.316406 723.046875 491.804688 C 727.523438 482.296875 726.707031 474.28125 726.707031 474.28125 C 721.175781 478.238281 711.660156 467.011719 709.984375 466.140625 Z M 804.578125 560.738281 L 798.84375 556.074219 L 772.054688 556.074219 L 775.632812 560.738281 Z M 813.222656 576.859375 L 813.222656 576.527344 L 768.847656 576.527344 L 768.847656 564.609375 L 755.949219 546.113281 C 756.398438 546.707031 755.949219 577.34375 755.949219 577.34375 L 768.847656 596.527344 L 768.847656 588.792969 L 813.226562 588.792969 L 813.226562 588.460938 L 768.847656 588.460938 L 768.847656 576.859375 Z M 813.222656 576.859375 " fill-opacity="1" fill-rule="nonzero"/><path fill="#1d1638" d="M 706.863281 594.042969 L 699.0625 594.042969 C 699.0625 594.042969 699.203125 587.808594 702.9375 587.515625 C 705.164062 587.339844 706.804688 590.941406 706.863281 594.042969 Z M 710.34375 493.136719 C 710.242188 493 710.207031 492.945312 710.160156 492.914062 L 709.960938 493.179688 C 709.984375 493.203125 710.019531 493.257812 710.078125 493.332031 C 711.398438 495.144531 712.953125 496.058594 714.703125 496.058594 C 715.203125 496.058594 715.71875 495.984375 716.25 495.839844 L 716.164062 495.519531 C 713.910156 496.148438 711.953125 495.34375 710.34375 493.136719 Z M 704.707031 567.164062 L 704.566406 567.464844 C 704.617188 567.488281 709.4375 569.710938 709.949219 571.238281 L 710.261719 571.128906 C 709.707031 569.464844 704.910156 567.257812 704.707031 567.164062 Z M 703.992188 562.320312 L 703.917969 562.644531 C 708.46875 563.675781 711.710938 566.601562 711.878906 568.691406 L 712.210938 568.664062 C 712.007812 566.148438 708.316406 563.300781 703.992188 562.320312 Z M 698.757812 480.332031 L 699.085938 480.269531 C 698.855469 479.089844 698.222656 478.019531 697.296875 477.25 L 697.085938 477.507812 C 697.945312 478.226562 698.539062 479.230469 698.757812 480.332031 Z M 702.359375 573.511719 L 702.289062 573.835938 C 706.492188 574.761719 707.164062 575.554688 707.167969 575.5625 L 707.4375 575.367188 C 707.375 575.28125 706.695312 574.46875 702.359375 573.511719 Z M 685.183594 554.074219 L 655.273438 552.335938 L 655.253906 552.667969 L 685.144531 554.402344 C 686.0625 554.582031 686.066406 556.492188 686.074219 558.183594 C 686.074219 558.847656 686.078125 559.476562 686.125 560.035156 L 686.457031 560.007812 C 686.410156 559.464844 686.410156 558.84375 686.40625 558.183594 C 686.402344 556.277344 686.390625 554.304688 685.183594 554.074219 Z M 700.496094 497.710938 C 701.058594 499.015625 703.339844 503.90625 707.554688 508.011719 L 709.832031 503.242188 C 709.847656 503.246094 709.859375 503.25 709.871094 503.25 L 709.941406 502.921875 C 707.453125 502.429688 699.539062 497.570312 698.207031 494.542969 C 697.964844 494.125 697.796875 493.429688 697.707031 492.472656 L 697.375 492.503906 C 697.46875 493.507812 697.648438 494.25 697.910156 494.6875 C 698.300781 495.59375 699.269531 496.652344 700.496094 497.710938 Z M 792.925781 508.425781 L 792.664062 508.21875 C 792.652344 508.234375 791.117188 510.136719 788.996094 511.210938 L 789.148438 511.507812 C 791.335938 510.398438 792.859375 508.503906 792.925781 508.425781 Z M 790.394531 504.878906 C 791.101562 504.457031 791.511719 503.558594 791.53125 502.425781 L 791.199219 502.421875 C 791.183594 503.441406 790.828125 504.230469 790.226562 504.589844 C 789.753906 504.867188 789.171875 504.863281 788.617188 504.582031 L 788.460938 504.878906 C 788.789062 505.050781 789.128906 505.132812 789.457031 505.132812 C 789.792969 505.128906 790.109375 505.046875 790.394531 504.878906 Z M 783.496094 494.539062 C 781.363281 494.78125 779.714844 495.628906 779.800781 496.4375 C 779.894531 497.242188 781.695312 497.699219 783.824219 497.460938 C 785.960938 497.21875 787.609375 496.371094 787.519531 495.5625 C 787.425781 494.753906 785.625 494.292969 783.496094 494.539062 Z M 793.472656 513.878906 C 793.289062 515.488281 790.910156 516.863281 789.679688 517.144531 L 789.753906 517.46875 C 791.101562 517.160156 793.601562 515.703125 793.800781 513.914062 Z M 737.117188 547.039062 C 737.871094 555.136719 738.070312 562.023438 738.117188 564.609375 L 738.449219 564.605469 C 738.402344 562.015625 738.203125 555.117188 737.445312 547.011719 Z M 720.730469 485.488281 C 720.257812 485.324219 719.703125 485.699219 719.488281 486.324219 C 719.277344 486.949219 719.488281 487.578125 719.964844 487.742188 C 720.4375 487.90625 720.992188 487.535156 721.207031 486.910156 C 721.417969 486.289062 721.207031 485.648438 720.730469 485.488281 Z M 726.089844 483.761719 C 726.542969 484.976562 726.515625 486.339844 726.007812 487.601562 C 725.503906 488.859375 724.585938 489.867188 723.414062 490.429688 C 722.761719 490.746094 722.078125 490.90625 721.402344 490.90625 C 720.855469 490.90625 720.320312 490.804688 719.804688 490.601562 C 719.773438 490.585938 719.742188 490.574219 719.710938 490.558594 C 719.054688 492.101562 716.367188 492.832031 716.238281 492.867188 L 716.152344 492.542969 C 716.1875 492.535156 719.59375 491.609375 719.523438 489.816406 C 719.457031 488.101562 717.636719 483.925781 717.253906 483.074219 C 716.921875 482.957031 716.574219 482.976562 716.414062 482.996094 C 716.351562 483.214844 716.28125 483.425781 716.199219 483.640625 C 715.261719 485.980469 713.101562 487.4375 710.898438 487.4375 C 710.285156 487.4375 709.667969 487.328125 709.074219 487.085938 C 706.382812 486.007812 705.136719 482.757812 706.257812 479.792969 L 698.816406 473.949219 L 699.019531 473.6875 L 706.386719 479.476562 C 706.980469 478.121094 707.996094 477.039062 709.277344 476.417969 C 710.628906 475.765625 712.101562 475.695312 713.425781 476.230469 C 713.992188 476.453125 714.503906 476.789062 714.945312 477.199219 C 715.585938 477.417969 715.820312 477.84375 715.8125 478.242188 C 716.003906 478.546875 716.164062 478.875 716.296875 479.226562 C 716.699219 480.3125 716.765625 481.5 716.507812 482.652344 C 716.746094 482.632812 717.121094 482.640625 717.472656 482.789062 L 717.492188 482.78125 C 717.492188 482.785156 717.496094 482.792969 717.503906 482.800781 C 717.65625 482.875 717.8125 482.96875 717.945312 483.113281 C 718.511719 482.261719 719.28125 481.621094 720.132812 481.242188 C 720.039062 480.632812 720.714844 479.941406 722.082031 480.824219 C 722.09375 480.832031 722.105469 480.835938 722.113281 480.847656 C 722.613281 480.859375 723.113281 480.957031 723.597656 481.148438 C 724.75 481.609375 725.632812 482.535156 726.089844 483.761719 Z M 715.980469 479.339844 C 715.894531 479.117188 715.792969 478.902344 715.6875 478.699219 C 715.527344 479 715.230469 479.195312 714.933594 479.097656 C 711.851562 478.234375 708.355469 478.867188 707.945312 478.234375 C 707.523438 477.582031 709.402344 477.015625 713.949219 477.039062 C 714.066406 477.039062 714.164062 477.050781 714.265625 477.058594 C 713.96875 476.84375 713.648438 476.667969 713.300781 476.527344 C 712.75 476.304688 712.175781 476.199219 711.59375 476.199219 C 710.867188 476.199219 710.128906 476.371094 709.429688 476.707031 C 708.160156 477.324219 707.164062 478.414062 706.613281 479.785156 C 705.480469 482.613281 706.644531 485.742188 709.203125 486.765625 C 711.761719 487.792969 714.765625 486.328125 715.894531 483.507812 C 716.441406 482.140625 716.472656 480.660156 715.980469 479.339844 Z M 725.777344 483.875 C 725.355469 482.746094 724.535156 481.882812 723.46875 481.457031 C 723.191406 481.347656 722.914062 481.273438 722.632812 481.226562 C 724.472656 482.707031 725.007812 484.757812 724.1875 484.261719 C 721.964844 482.515625 720.539062 481.90625 720.257812 481.546875 C 719.308594 481.972656 718.472656 482.738281 717.929688 483.777344 C 718.597656 485.347656 719.804688 488.351562 719.855469 489.796875 C 719.863281 489.949219 719.84375 490.09375 719.8125 490.234375 C 719.851562 490.253906 719.886719 490.269531 719.929688 490.289062 C 720.992188 490.714844 722.179688 490.660156 723.269531 490.132812 C 724.359375 489.601562 725.222656 488.660156 725.699219 487.476562 C 725.730469 487.398438 725.757812 487.3125 725.78125 487.234375 L 725.019531 486.980469 L 725.125 486.664062 L 725.886719 486.917969 C 726.167969 485.894531 726.136719 484.832031 725.777344 483.875 Z M 711.914062 482.191406 C 711.4375 482.027344 710.882812 482.398438 710.671875 483.023438 C 710.457031 483.644531 710.671875 484.277344 711.144531 484.441406 C 711.621094 484.605469 712.175781 484.234375 712.386719 483.609375 C 712.601562 482.984375 712.386719 482.355469 711.914062 482.191406 Z M 711.914062 482.191406 " fill-opacity="1" fill-rule="nonzero"/></svg>